<?xml version="1.0" ?><!DOCTYPE svg  PUBLIC '-//W3C//DTD SVG 1.1//EN'  'http://www.w3.org/Graphics/SVG/1.1/DTD/svg11.dtd'><svg height="32px" id="Capa_1" style="enable-background:new 0 0 32 32;" version="1.1" viewBox="0 0 32 32" width="32px" xml:space="preserve" xmlns="http://www.w3.org/2000/svg" xmlns:xlink="http://www.w3.org/1999/xlink"><style type="text/css">
	.st0{fill:#2D2D2D;stroke:#351500;stroke-miterlimit:10;}
	.st1{fill:#FFCDAB;}
	.st2{opacity:0.1;fill:#351500;}
	.st3{fill:none;stroke:#351500;stroke-miterlimit:10;}
	.st4{fill:none;stroke:#351500;stroke-linecap:round;stroke-miterlimit:10;}
	.st5{opacity:0.4;fill:#FF52AD;}
	.st6{fill:#351500;}
	.st7{fill:#2D2D2D;}
	.st8{fill:#FF52AD;}
	.st9{opacity:0.4;fill:#FFFFFF;}
	.st10{fill:none;}
	.st11{opacity:0.7;fill:#9CC4FF;}
</style><path class="st0" d="M11.5,28.5h10c3,0,3,4,3,4h-16C8.5,32.5,8.5,28.5,11.5,28.5z"/><g><path class="st1" d="M18.5,28.5c0,0,0,2-2,2s-2-2-2-2v-7h4V28.5z"/><path class="st2" d="M18.5,28.5c0,0,0,2-2,2s-2-2-2-2v-7h4V28.5z"/><path class="st3" d="M18.5,28.5c0,0,0,2-2,2s-2-2-2-2v-7h4V28.5z"/></g><g><path class="st1" d="M11.5,16.5c0-2.209-1.791-4-4-4s-4,1.791-4,4s1.791,5,4,5S11.5,18.709,11.5,16.5z"/><path class="st2" d="M11.5,16.5c0-2.209-1.791-4-4-4s-4,1.791-4,4s1.791,5,4,5S11.5,18.709,11.5,16.5z"/><path class="st3" d="M11.5,16.5c0-2.209-1.791-4-4-4s-4,1.791-4,4s1.791,5,4,5S11.5,18.709,11.5,16.5z"/></g><g><path class="st1" d="M29.5,16.5c0-2.209-1.791-4-4-4s-4,1.791-4,4s1.791,5,4,5S29.5,18.709,29.5,16.5z"/><path class="st2" d="M29.5,16.5c0-2.209-1.791-4-4-4s-4,1.791-4,4s1.791,5,4,5S29.5,18.709,29.5,16.5z"/><path class="st3" d="M29.5,16.5c0-2.209-1.791-4-4-4s-4,1.791-4,4s1.791,5,4,5S29.5,18.709,29.5,16.5z"/></g><path class="st1" d="M26.5,15.5c0-6.075-3.925-11-10-11s-10,4.925-10,11s3.925,11,10,11S26.5,21.575,26.5,15.5z"/><path class="st4" d="M26.5,15.5c0-6.075-3.925-11-10-11s-10,4.925-10,11s3.925,11,10,11S26.5,21.575,26.5,15.5z"/><g><path class="st5" d="M16.5,20.5c-1.103,0-2-0.897-2-2c0-1.868,1.229-6.852,2.004-7c0.767,0.149,1.996,5.132,1.996,7   C18.5,19.603,17.603,20.5,16.5,20.5z"/><path class="st6" d="M16.5,12.246c0.681,1.18,1.5,4.873,1.5,6.254c0,0.827-0.673,1.5-1.5,1.5c-0.827,0-1.5-0.673-1.5-1.5   C15,17.119,15.819,13.426,16.5,12.246 M16.5,11c-1.381,0-2.5,6.119-2.5,7.5s1.119,2.5,2.5,2.5s2.5-1.119,2.5-2.5S17.881,11,16.5,11   L16.5,11z"/></g><path class="st4" d="M12.5,20.5c0,0,1,2,4,2s4-2,4-2"/><line class="st4" x1="20.5" x2="24.5" y1="11.5" y2="12.5"/><path class="st7" d="M24.99,9H8.01c0.02-0.29,0.05-0.58,0.1-0.87c0.15-0.95,0.47-1.86,0.94-2.71C9.17,5.2,9.3,4.98,9.45,4.77  c0.23,0.16,0.74,0.48,1.56,0.81c1.16,0.46,2.96,0.92,5.49,0.92c4.25,0,6.43-1.3,7.04-1.74c0.16,0.22,0.29,0.44,0.41,0.66  c0.47,0.85,0.79,1.76,0.94,2.71C24.93,8.41,24.97,8.71,24.99,9z"/><path class="st8" d="M14.5,34.5"/><path class="st0" d="M25.5,9.5h-18c0-0.49,0.04-0.98,0.12-1.45c0.16-1.02,0.5-1.99,0.99-2.87c0.14-0.25,0.29-0.5,0.46-0.74  c1.6-2.38,4.34-3.94,7.43-3.94s5.83,1.56,7.43,3.94c0.17,0.24,0.32,0.49,0.46,0.74c0.49,0.88,0.83,1.85,0.99,2.87  C25.46,8.52,25.5,9.01,25.5,9.5z"/><path class="st9" d="M24.99,9H8.01c0.02-0.29,0.05-0.58,0.1-0.87c0.15-0.95,0.47-1.86,0.94-2.71C9.17,5.2,9.3,4.98,9.45,4.77  c0.23,0.16,0.74,0.48,1.56,0.81c1.16,0.46,2.96,0.92,5.49,0.92c4.25,0,6.43-1.3,7.04-1.74c0.16,0.22,0.29,0.44,0.41,0.66  c0.47,0.85,0.79,1.76,0.94,2.71C24.93,8.41,24.97,8.71,24.99,9z"/><g><path class="st0" d="M16.5,12C8.965,12,5.58,8.701,5.439,8.561c-0.586-0.585-0.586-1.536,0-2.121   C6.023,5.856,6.966,5.854,7.551,6.43C7.685,6.557,10.334,9,16.5,9c6.195,0,8.841-2.467,8.95-2.572   c0.593-0.568,1.539-0.56,2.116,0.028c0.575,0.587,0.575,1.523-0.006,2.104C27.42,8.701,24.035,12,16.5,12z"/></g><rect class="st10" height="32" width="32"/><line class="st4" x1="8.5" x2="12.5" y1="12.5" y2="11.5"/><circle class="st6" cx="10.5" cy="15.5" r="1.5"/><circle class="st6" cx="22.5" cy="15.5" r="1.5"/><g><path class="st11" d="M9.5,17.5c-1.103,0-2-0.897-2-2s0.897-2,2-2h2c1.103,0,2,0.897,2,2s-0.897,2-2,2H9.5z"/><path class="st6" d="M11.5,14c0.83,0,1.5,0.67,1.5,1.5c0,0.83-0.67,1.5-1.5,1.5c-0.39,0-1.61,0-2,0C8.67,17,8,16.33,8,15.5   C8,14.67,8.67,14,9.5,14C9.89,14,11.11,14,11.5,14 M11.5,13h-2C8.122,13,7,14.122,7,15.5S8.122,18,9.5,18h2   c1.378,0,2.5-1.122,2.5-2.5S12.878,13,11.5,13L11.5,13z"/></g><g><path class="st11" d="M21.5,17.5c-1.103,0-2-0.897-2-2s0.897-2,2-2h2c1.103,0,2,0.897,2,2s-0.897,2-2,2H21.5z"/><g><path class="st6" d="M23.5,14c0.83,0,1.5,0.67,1.5,1.5c0,0.83-0.67,1.5-1.5,1.5c-0.39,0-1.61,0-2,0c-0.83,0-1.5-0.67-1.5-1.5    c0-0.83,0.67-1.5,1.5-1.5C21.89,14,23.11,14,23.5,14 M23.5,13h-2c-1.378,0-2.5,1.122-2.5,2.5s1.122,2.5,2.5,2.5h2    c1.378,0,2.5-1.122,2.5-2.5S24.878,13,23.5,13L23.5,13z"/></g></g><line class="st3" x1="11" x2="22" y1="13.5" y2="13.5"/><g/><g/><g/><g/><g/><g/></svg>